<svg xmlns="http://www.w3.org/2000/svg" viewBox="0 0 391.4 299.4"  xmlns:v="https://vecta.io/nano"><path d="M95.6 114.6C76.3 195 125.9 275.9 206.4 295.2S367.7 264.9 387 184.4C406.2 104 356.6 23.2 276.2 3.9 195.7-15.4 114.9 34.2 95.6 114.6zm90.3 21.7c7.3-30.6 38.1-49.4 68.6-42.1 30.6 7.3 49.4 38.1 42.1 68.6-7.3 30.6-38.1 49.4-68.6 42.1-30.6-7.3-49.4-38-42.1-68.6z" fill="#feb546"/><g fill="#f4a640"><path d="M194.2 244.1c80.4 19.3 161.3-30.3 180.6-110.8a149.8 149.8 0 0 0 3.9-43.4c12.5 28.8 16.1 61.7 8.3 94.5-19.3 80.4-100.1 130-180.6 110.8-65.9-15.8-111-72.8-114.7-137.2 18.1 41.7 54.9 74.7 102.5 86.1z"/><path d="M250.9 79.9c23.8 5.7 40.4 25.5 43.2 48.4a56.88 56.88 0 0 0-39.6-34.2c-30.6-7.3-61.3 11.5-68.6 42.1-1.6 6.8-2 13.6-1.1 20.2-4.3-10.6-5.4-22.5-2.5-34.5 7.3-30.4 38-49.3 68.6-42z" opacity=".2"/></g><path d="M178.4 41.5c1.2 7.6 20 11.1 42.1 7.7 22-3.4 39-12.3 37.8-20-1.2-7.6-20-11.1-42.1-7.7-22 3.4-38.9 12.3-37.8 20z" fill="#fff" opacity=".3"/><path d="M390.1 80.4s3.8 27.1-14.3 39.4c-25.9 17.5-38.6 32-52.4 50.8s-48.9 20.7-66.4-8.8-34.9-72.3-15.5-88.8 42.6-7.7 56.8-14.3c14.1-6.6 34.7-19.3 54.2-17.4 20.3 2 40.4 9.4 37.6 39.1z" fill="#07085b"/><path d="M311.7 87.2l5.8 6.4 2.6-.8 2.2 4.7c.2.4.2.7 0 1 .3 0 .5.2.8.6.8 1.2 3.6 6.3 3.6 6.3l-2.1 1.8 1 6.5s-12.3 12.2-13.2 12.7-17.8-1.9-19.5-2.8c-1.6-.9-.2-8.9-.1-9.5-.5-.2-7.9-3.6-7.8-5.4.2-1.9 7.7-17.2 8.6-17.7 1.1-.5 18.1-3.8 18.1-3.8z" fill="#ffc0bb"/><path d="M327.1 97.6l2.9 5.5-3.2 2.3c-1.5-1.5-4.3-5.1-6.8-12.5l3.8-1.5 2.9 5.5.4.7z" fill="#f99893"/><path d="M362.9 108.5c0-1.4-.8-2.7-2-3.6 11.1-5.1 15.7-18.7 9.7-29.6-5.3-11.4-19-15.6-29.6-9.7 0-1.5-.6-2.9-1.7-3.8-2.2-1.7-5.7-.8-7.8 2s-2 6.3.3 8c.3.2.6.4 1 .5-8.4 5.8-11.3 16.8-6.7 25.5 4.4 8.9 14.9 13 24.6 9.6-.1.4-.2.7-.1 1.1 0 2.8 2.9 5 6.3 4.9 3.3.1 6.1-2.2 6-4.9z" fill="#ffc0bb"/><path d="M348 82.8c-.1-1-.3-1.9-.6-2.7-.3-.9-.6-1.6-1.1-2.4-.5-.7-1-1.4-1.7-1.9l-.2-.2c-.1-.1-.2-.1-.3-.2l-.5-.4c-.4-.3-.8-.5-1.2-.8.5 0 1 .1 1.5.2.5.2 1 .3 1.4.6.9.5 1.7 1.2 2.2 2.1.6.9.9 1.9 1 2.9 0 .9-.1 1.9-.5 2.8zm3.4 6.6c1 .2 1.9.7 2.7 1.3.8.7 1.4 1.5 1.8 2.5s.5 2 .4 3c0 .5-.2 1-.3 1.5-.2.5-.4.9-.7 1.3v-2.7c0-.9-.3-1.7-.6-2.5s-.7-1.5-1.3-2.3l-2-2.1z" fill="#183658"/><path d="M350.3 97c-.6-.1-1.2-.4-1.7-.9-.5-.4-.9-1-1.2-1.6-.2-.6-.4-1.3-.3-2 0-.3.1-.6.2-1 .1-.3.3-.6.4-.9v1.7c0 .6.2 1.1.4 1.6s.5 1 .8 1.5c.5.8 1 1.2 1.4 1.6zm-10-18.8c-.3.6-.3 1.3-.3 1.9.1.7.3 1.3.7 1.9s.9 1 1.5 1.3c.3.2.6.2.9.3s.6.1 1 .1l-.8-.5-.4-.3c-.1 0-.1-.1-.2-.1l-.2-.1c-.5-.4-.8-.8-1.1-1.2-.3-.5-.6-1-.7-1.5-.2-.6-.3-1.2-.4-1.8z" fill="#333"/><path d="M347.2 86.6c-.9.4-1.7.9-2.5 1.5-.4.3-.8.6-1.1 1s-.6.8-.8 1.4v.4c0 .1 0 .2-.1.3 0 .2-.1.3-.2.4-.2.3-.6.4-1 .4-.8 0-1.7-.4-2.4-1 .5.8 1.3 1.6 2.4 1.7.5.1 1.2-.1 1.6-.5a1.38 1.38 0 0 0 .3-.4c.1-.1.1-.3.2-.4s.1-.3.1-.4v-.3c.1-.4.3-.7.6-1.1s.6-.7.9-1l2-2z" fill="#f99893"/><path d="M360.9 104.9s-1.2-15.3 5.1-30.1c0 0-19.7-2.3-25.1-9.2 0 0 3.8-4.2 4.5-4.6s16.3-2.5 16.3-2.5l15.9 10 5.3 16.6s5.5 12.1 2.5 14.6c-3.1 2.5-8.8 8.2-10.2 9-1.4.7-11.3-4.6-11.3-4.6l-3 .8z" fill="#07085b"/><path d="M336.5 94.9c-1-1.3-1.7-2.6-2.1-4.1-.2-.7-.2-1.5-.1-2.2.1-.8.3-1.5.5-2.3-.5.6-.9 1.4-1.1 2.2-.1.4-.1.8-.2 1.2 0 .4 0 .8.1 1.3.2.8.5 1.6 1 2.3.6.6 1.2 1.2 1.9 1.6z" fill="#f99893"/><path d="M325.5 116.6l49.7 17.8.1-14.2c.2-.1.3-.2.5-.3 6.9-4.7 10.6-11.5 12.6-18.2 2 15 5.9 50.8-.5 54.8-8.2 5.1-66.4-13.6-77.2-21.2s4.3-11.2 4.9-11.9 9.9-6.8 9.9-6.8zM311.4 11.8c6.9-3 33.5 19.6 45.1 30-1.3-.2-2.6-.3-3.9-.5-5.9-.6-11.9.2-17.7 1.7l-12.3-8.3-13.3 51S299 90 298.1 90.1s-16 6.8-16.2-6.4c-.3-13.1 20.6-68 29.5-71.9z" fill="#ffc0bb"/><path d="M183.2 151.9l30.3-1.4c1.1.2 25.1 15.9 25.1 15.9l-.8 19.3s-26.6 21.7-82.7 33c0 0-6.8 2-12.8 6.8-6.1 4.8-32.5 22.8-63.5 25.4 0 0-15.3 3.6-22.4 7C46.3 263.4 40 269 40 269s-5.4 8.1-9.3 6.5c-3.9-1.7-7.8-1.9-9.9-4.5s-3.6-1.1-5.1-4c-1.4-2.6 27.4-15.2 36.5-19.4L96.4 221c.9-.2 57.5-27 59.5-33 1.9-6.2 27.3-36.1 27.3-36.1z" fill="#f9b0ac"/><path d="M31.8 221.8l-.1-.2s48.4-34.2 69.8-28.8l23.6 3.7s16.7-58.9 54.3-74.5c0 0 14.7-4.6 23.3-2.7 0 0 7.8 53.7-53.3 93.3 0 0-7.7 7.2-16.2 6.8-7.6-.4-79.8 10.2-93.7 12.3-10.3 4.4-38.2 16.7-39.2 13.9-1.2-3.2 1-3.3.5-6.7-.5-3.5 2-6.6 3.4-10.7 1.4-4.2 11.5-2.7 11.5-2.7s6.8-.8 16.1-3.7z" fill="#ffc0bb"/><path d="M202.8 119.3c13.4-6.3 42.5-10.4 45.5-10.6 3-.3 6.2-8.9 20.9-21.1s26.5-.7 28.1-.2 12.3-2.7 12.3-2.7l2.2 2.6-13.7 5.7c-.7 10.1-4.8 20.3-5.2 21.1.9.2 11.6 2.5 20.3 7.6l12.4-8 .9 3.3s-8.7 7-9.1 8.6c-.5 1.6 2.4 17.8-16 23.1s-28.1 1.7-30 4-20.9 25.5-33.7 33.1c0 0-25.9-16.7-45.4-18.5l-.1.1v-.1h-.1l.1-.1c9.7-17.1 10.6-47.9 10.6-47.9z" fill="#ff5b7e"/><path d="M248.3 108.7c3-.3 6.2-8.9 20.9-21.1 8.1-6.8 15.4-6.2 20.5-4.4 0 0-27.3 13-23.7 27.1 3.6 14.2 13.2 22 14.1 26.6 0 0-12.4-11.6-18.6-14.5s-65 22.7-34.6 56.9c-9.3-4.9-22.9-11.1-34.3-12.1l-.1.1v-.1h-.1l.1-.1c9.5-17.1 10.3-47.9 10.3-47.9 13.3-6.2 42.5-10.3 45.5-10.5z" fill="#d65561" opacity=".3"/></svg>