<svg xmlns="http://www.w3.org/2000/svg" viewBox="0 0 276.8 715.9"  fill="#afdff9" xmlns:v="https://vecta.io/nano"><path d="M244.1 39.7c7.5-7.5 19.6-7.5 27.1 0s7.5 19.6 0 27.1-19.6 7.5-27.1 0-7.5-19.6 0-27.1zm-5.6-30.1c0-5.3 4.3-9.6 9.6-9.6s9.6 4.3 9.6 9.6-4.3 9.6-9.6 9.6-9.6-4.3-9.6-9.6z"/><circle cx="171.3" cy="347.6" r="45.9"/><circle cx="70" cy="655.2" r="60.7"/><path d="M5.9 537.1c7.9-7.9 20.8-7.9 28.7 0s7.9 20.8 0 28.7-20.8 7.9-28.7 0c-7.9-8-7.9-20.8 0-28.7zM125.4 243c0-12.7 10.3-23 23-23s23 10.3 23 23-10.3 23-23 23c-12.8-.1-23-10.4-23-23zm111.2-61.9c0-6.3 5.1-11.5 11.5-11.5 6.3 0 11.5 5.1 11.5 11.5 0 6.3-5.1 11.5-11.5 11.5s-11.5-5.2-11.5-11.5z"/></svg>