<svg xmlns="http://www.w3.org/2000/svg" viewBox="0 0 531.8 880.5"  xmlns:v="https://vecta.io/nano"><path d="M355.8 284l-29.2 128.9 15.2 39.2c-106.3 17.1-125.2 69.8-152 50.3 0 0-1.9-34.3-1.2-47.6s-1.9-33.5.5-52.8l13-119.9s-2.2-73.8 26.3-76.5c10.3-1 25.9-11.3 27.1-21.7.2-1.6 4.5-26.7 5.3-44l50.4 24.9s-2.5 29.8-1.8 36.5c.1.5.1 1 .2 1.5.9 7.5 8.7 12.3 15.9 14.6 44.5 13.8 30.3 66.6 30.3 66.6z" fill="#ffb27d"/><path d="M333.1 284.4c-.2 1.8-1.9 3.1-3.7 2.9s-3.1-1.9-2.9-3.7 1.9-3.1 3.7-2.9c1.9.2 3.1 1.9 2.9 3.7zM253 274.2c-.2 1.8-1.9 3.1-3.7 2.9s-3.1-1.9-2.9-3.7 1.9-3.1 3.7-2.9 3.1 1.8 2.9 3.7z" fill="#ed975d"/><g fill="#ffb27d"><path d="M341.9 452.1s30.2 148.7 7.2 204.5S267 775 267 775l-23.3-21.9s49.5-100.5 46.1-130.5-39.1-156.2-39.1-156.2l91.2-14.3z"/><path d="M267.1 775s-9 24.6-6.1 48 3.1 37.7-7.2 35.6-22.3-32.5-29.2-46.3c-7-13.8-27.8-34.5 19.2-59.1l23.3 21.8zm13.6-312s-1.5 155.8-42.4 200.2c-24.4 26.5-144 34.3-144 34.3l-14.5-24.7s108.5-49.3 109.3-56.9c3.1-30.1-.2-161-.2-161l91.8 8.1z"/><path d="M95.2 697.2s-25.4 6.2-43.2 21.6-29.5 23.6-33.5 13.9 14.6-36.6 22.2-50.1 13.1-42.3 59.8-17l-5.3 31.6zm230.4-479.9s23.1 3.7 67-20.7c35.6-19.8 87.5-118 87.5-118l17.1 8s-34.2 115.7-57 139S356 284 356 284l-30.4-66.7z"/><path d="M480 78.5s-.8-16.5 1-18.7c1.9-2.1 5.3 8.3 6 6.8s8.6-20.3 15-18.6c9 2.3 6.4 12.2 5.1 20.2S497 86.5 497 86.5l-17-8zM231.2 205.8s-23.1 3.7-67-20.7C128.6 165.3 76.8 67 76.8 67l-17.1 8s34.2 115.7 57 139 86.5 64.9 86.5 64.9l28-73.1z"/><path d="M76.8 67s.8-16.5-1-18.7c-1.9-2.1-5.3 8.3-6 6.8s-8.6-20.3-15-18.6c-9 2.3-6.4 12.2-5.1 20.2S59.8 75 59.8 75l17-8z"/></g><path d="M259.5 164.4s5.3 17 50.2 22.7l.5-8.8-50.7-13.9z" fill="#ed975d"/><path d="M327.8 176.8S254 195 246.6 140.4s20-93.7 40.8-95.8c41.6-4 50.3 12.6 57 30.2 6.8 17.6 17.4 94.2-16.6 102z" fill="#ffb27d"/><path d="M305.3 145.4s6.4 8.6 20 6c0 0 14.8-2.5 12.6-14 0 0-18.4-.6-32.6 8z" fill="#fff"/><g fill="#2c3a64"><path d="M258.7 166s-13-9.9-9.1-33.7c0 0-8.7-10.7-1.4-18.1 7.1-7.2 14.5 9 16.3 6.5s1.3-45.2 11.4-41.9c57.1 18.8 86.7-25.9 86.7-25.9S298.4-3.9 242.1 28.2C177 65.4 208.3 166 258.7 166z"/><path d="M210.7 64.3s-4.3-9.5-1.6-17c0 0 1.2 9.7 5.4 13.6s-3.8 3.4-3.8 3.4z"/><path d="M211.5 57.2s-8.8 0-12.2 7.4c0 0 5.7-5 12.4-1.2l-.2-6.2z"/></g><path d="M190 502.4l83.1 4.3s23.9-2.2 44.8-5.7c16.6-2.8 31.3-6.5 30.7-10.6-1.5-9.3-17.7-95.9-17.7-95.9s-71.3 11.6-139.4-12.6c0-.1-15.9 46.2-1.5 120.5zm-80.8-278.8l54.5 41c7 4 16 1.6 20-5.3l29.2-50.6c4-7 1.6-16-5.4-20l-62.1-29c-7-4-11.6-5.9-15.6 1.1l-15.2 26.3-9.1 15.8c-4 7-3.2 16.7 3.7 20.7zm229 2l14.3 24.8v.1l14.8 25.7c4 7 13 9.4 20 5.4l54.5-41c7-4 7.7-13.7 3.7-20.7l-3.2-5.5-21.2-36.7c-4-7-8.6-5.1-15.6-1.1l-62.1 29c-6.8 4-9.2 13-5.2 20z" fill="#f77d48"/><path d="M114.6 187.1h0zm-5.4 36.5l54.5 41c7 4 16 1.6 20-5.3L196 238s-15.6 12.4-31.8 5.1-49.3-31.2-51.7-39.6c-2.3-8 1.8-15.6 2.2-16.4l-9.1 15.8c-4.1 7-3.3 16.7 3.6 20.7zm243.4 26.8l14.8 25.7c4 7 13 9.4 20 5.4l54.5-41c7-4 7.7-13.7 3.7-20.7l-3.2-5.5s.8 6.3-6.2 12.3c-7 6.1-52.9 36.2-67.6 31.2-13.2-4.4-15.7-7-16-7.4zm-79.5 256.3s5.8-43.2 18-54.6c0 0-6.5 28.9 0 52.6l-18 2z" fill="#e26337"/></svg>