<svg xmlns="http://www.w3.org/2000/svg" viewBox="0 0 212.2 264.9"  xmlns:v="https://vecta.io/nano"><g fill="#263239"><path d="M153.6 28.7c9.6 6.4 15.7 17.8 15.7 29.3 0 5.6-1 12.1 2.9 16s11 3.2 14.7 7.3c4.5 4.8 1.7 12.6 3.6 18.9 1.8 5.9 8.5 9.7 14.5 8.5-6.6 6.4-15.1 10.8-24.1 12.8l-7.7-8.4c2.9 2.9 2.6 8 .3 11.4s-6.1 5.5-9.9 7c-18.2 7.4-39.9 5.6-56.7-4.7"/><path d="M52.8 86.2c1.1-4.4 3.1-8.5 3.7-13 1.3-9.6-4.2-19.9-.3-28.7 2.8-6.3 9.5-9.8 15.9-12.4 6.4-2.5 13.3-4.8 17.8-10 3.3-3.8 5-8.9 8.3-12.7 4.7-5.5 12.1-7.8 19.2-8.8 7.3-1 15-.9 21.9 1.8s12.9 8.4 14.6 15.6c.9 3.5.7 7.3 2.1 10.6 1.5 3.7 4.7 6.4 6.8 9.7 4.4 7.1 3.1 17.3-2.9 23l-45.4 69.3c-10.3 4.9-36.4 2-45.2-5.2-8.8-7.1-19.2-28.2-16.5-39.2z"/></g><path d="M157.9 53.1c-3.3-14.7-15.9-31.3-30.4-27.4L83.3 44.6c-4.4 1.2-7.2 5.5-6.4 10l22.4 110.3c-.1 0-.2.1-.3.1 0 0 15.3 29.7 44.3 15.4 5.7-2.8 7.5-9.9 7.6-16.8h.3l-.3-2.3c-.2-8-2.2-15.3-2.2-15.3h0l-1.9-12.6s18.4-6.1 18.5-31.4c0-12.5-3.7-32.6-7.4-48.9z" fill="#fbd5be"/><path d="M124.2 78.8c.3 1.7-.8 3.3-2.6 3.7-1.7.4-3.4-.7-3.7-2.3-.3-1.7.8-3.3 2.5-3.7 1.8-.4 3.5.6 3.8 2.3zm32.5-6.5c.3 1.7-.8 3.3-2.6 3.7-1.7.4-3.4-.7-3.7-2.3-.3-1.7.8-3.3 2.5-3.7 1.8-.4 3.4.6 3.8 2.3zm-.1-7.8c-.3.6-3.4-1-7.1-.2s-5.8 3.6-6.4 3.1c-.3-.2 0-1.2.9-2.5.9-1.2 2.7-2.6 4.9-3.1 2.3-.5 4.4 0 5.8.8s2 1.6 1.9 1.9zm-34.1 6.7c-.4.6-3.5-1.3-7.5-.8-4 .4-6.6 3-7.1 2.5-.2-.2.1-1.2 1.3-2.3 1.1-1.1 3.1-2.4 5.6-2.6 2.5-.3 4.7.4 6 1.3 1.3.8 1.9 1.7 1.7 1.9zm15.7 22.3c0-.2 2-.9 5.4-1.9.9-.2 1.7-.5 1.7-1.1.1-.7-.4-1.5-1-2.5l-3.6-6.2c-5.1-8.9-8.9-16.2-8.5-16.4s4.7 6.8 9.8 15.7l3.5 6.3c.5.9 1.2 2 1 3.3-.1.7-.7 1.3-1.2 1.5-.5.3-1 .3-1.4.4-3.5.7-5.7 1.1-5.7.9z" fill="#263239"/><path d="M146.9 133.4s-16.4 3.7-34.4-3.6c0 0 10.7 15.7 35 9.5l-.6-5.9z" fill="#ec9a6e"/><path d="M138 101.9c-1.5-1.4-3.8-2-5.9-1.4-1.5.4-2.8 1.3-3.5 2.7-.7 1.3-.6 3.1.4 4.1 1.1 1.1 3.1 1.1 4.6.4 1.6-.7 2.8-2 3.9-3.3.3-.4.6-.7.8-1.2a1.23 1.23 0 0 0-.2-1.3" fill="#ee7160"/><g fill="#263239"><path d="M128.5 97.4c.5-.1 1.1 3.6 4.7 5.7s7.4 1.1 7.6 1.6c.1.2-.8.9-2.4 1.2s-4.1.2-6.3-1.1-3.4-3.3-3.7-4.8c-.4-1.6-.1-2.5.1-2.6zm-7.3-37.8c-.2 1-3.7 1.1-7.6 2.2-3.9 1-7 2.7-7.6 2-.3-.4.1-1.3 1.3-2.4s3.1-2.3 5.4-2.9c2.4-.6 4.6-.6 6.2-.2 1.5.2 2.4.8 2.3 1.3z"/><path d="M152.4 54.6c-.6.9-3.4.5-6.6 1-3.2.4-5.9 1.5-6.6.7-.3-.3 0-1.2 1-2.1 1.1-.9 2.9-1.8 5.2-2.1 2.2-.3 4.3.1 5.5.7 1.3.7 1.8 1.4 1.5 1.8zM73.5 49c2-3.7 6-5.9 9.8-7.7 16.4-7.9 33.8-13.8 51.6-17.6 2.5 3.5.9 8.7-2.3 11.7s-7.4 4.4-11.4 6.2c-3.9 1.8-7.9 4.5-9.2 8.6-1.4 4.4.5 9.3-.8 13.7-2.1 7.7-12.3 10.9-14.3 18.5-1.5 5.8 2.2 11.5 3.5 17.4 1.5 6.6-.5 13.9-5 19-3.6 4-8.7 6.5-14 7l-8.8-63.7c-.7-4.4-1.2-9.2.9-13.1z"/><path d="M34.8 106.3c3.1-3.3 7.2-6.2 8.2-10.7 1.5-6.5-4.2-13.4-1.4-19.4 2.6-5.5 11.3-5.9 13.7-11.5 1.8-4.3-.9-7.8-.4-11.6.5-3.7 5.5-7.4 9.2-7.2l32.5 39.9c3.8 14 7.2 21.3 4.8 29.8-1.3 4.7-3.1 9.3-3.4 14.1-.3 4.9 1.4 10.2 5.5 12.7-17.3 2.7-34.4-5.1-50.2-12.7l-16.7-8.1c-1.7-.8-3.6-1.7-4.7-3.3-2.7-3.5-.2-8.7 2.9-12z"/></g><path d="M52.5 125.6s.6.2 1.9.2c1.2 0 3.1-.1 5.4-.8s4.9-2.1 7.2-4.7c2.3-2.5 4-6.3 4.2-10.6.1-2.2-.3-4.4-1.1-6.6-.9-2.2-2.3-4.2-3.7-6.2-1.5-2-3-4-3.9-6.5-.8-2.4-1.1-5.3.3-7.5s4.3-3 7-4.3c1.3-.7 2.7-1.6 3.5-3s1-3.1.8-4.7c-.3-3.2-1.9-6-2.7-8.9-.4-1.5-.6-3-.4-4.4.3-1.5 1.1-2.8 2.2-3.7 2.4-2 5.6-2.5 8.6-3.1 3.1-.5 6.3-1.4 8.8-3.4 2.5-1.8 4.5-4.4 5.6-7.2s1.4-5.8 1.6-8.5c.2-2.8.4-5.5 1.1-8s2-4.7 3.6-6.5c3.2-3.6 7.5-5.8 11.6-6.4 4.1-.7 7.9.1 11 1.4s5.4 3 7.1 4.6c3.4 3.2 4.5 5.7 4.6 5.6l-.2-.4c-.2-.3-.4-.7-.7-1.2-.7-1.1-1.7-2.6-3.4-4.2-1.7-1.7-4.1-3.5-7.2-4.8-3.1-1.4-7-2.2-11.3-1.6-4.2.6-8.7 2.8-12.1 6.6-1.7 1.9-3.1 4.2-3.8 6.8-.8 2.6-.9 5.4-1.2 8.1-.2 2.8-.5 5.6-1.6 8.2s-2.9 5-5.3 6.7c-2.4 1.8-5.3 2.7-8.4 3.2-3 .5-6.5 1-9.1 3.3-1.3 1.1-2.3 2.6-2.6 4.3s0 3.4.4 4.9c.9 3.1 2.4 5.8 2.7 8.7.1 1.4 0 2.9-.7 4.1s-1.8 2-3.1 2.7-2.6 1.1-3.9 1.8-2.6 1.6-3.4 2.9c-1.6 2.6-1.3 5.8-.4 8.3.9 2.6 2.6 4.7 4 6.7 1.5 2 2.9 3.9 3.7 6s1.2 4.3 1.1 6.3c-.1 4.1-1.7 7.8-3.9 10.2-2.2 2.5-4.8 3.9-7 4.7-4.2 1.5-6.9.8-6.9.9z" fill="#455a64"/><path d="M26.9 97.4s-.3.5-.5 1.5 0 2.6 1.1 4.3c.6.8 1.3 1.6 2.4 2.2 1.1.5 2.4.8 3.8.7 2.8-.2 5.9-2.1 7.2-5.5.7-1.6 1-3.5.8-5.4s-.8-3.8-1.7-5.7c-1.7-3.7-4.5-7.1-4.9-11.5-.2-2.1.1-4.5 1.5-6.2s3.8-2.3 6.2-2.5c2.4-.3 5-.2 7.5-1.4 1.2-.6 2.3-1.6 2.9-2.9.6-1.2.9-2.6 1-3.9.1-2.7-.7-5.3-1.2-7.7-.6-2.4-.6-4.9-.2-7.2.9-4.7 3.7-8.8 7.3-11.3 3.6-2.6 7.9-3.2 11.9-3.7 3.9-.5 7.8-1.1 10.9-2.6s5.6-3.5 7.4-5.5 3-4.1 3.8-5.8c1.6-3.5 1.6-5.7 1.6-5.7-.1 0-.3 2.1-2 5.5-.8 1.7-2.1 3.7-3.9 5.6-1.8 2-4.2 3.9-7.3 5.3-3 1.4-6.7 1.9-10.7 2.4-3.9.5-8.4 1.1-12.3 3.8-3.8 2.6-6.7 6.9-7.7 11.9-.5 2.5-.4 5.1.2 7.6.5 2.5 1.3 5 1.2 7.4-.1 2.5-1.1 4.9-3.3 5.9-2.1 1.1-4.7 1-7.1 1.3-2.4.2-5.1.8-6.8 2.8s-2 4.6-1.7 6.9c.2 2.3 1.1 4.5 2.1 6.4s2.1 3.7 2.9 5.4c.9 1.8 1.5 3.6 1.7 5.4s-.1 3.5-.7 5.1c-1.2 3.1-4.1 4.9-6.6 5.2-1.3.2-2.5-.1-3.5-.6s-1.8-1.2-2.3-2c-1.1-1.5-1.3-3-1.2-4 0-1 .2-1.4.2-1.5zm184.5-4.1c-.2 0 1.1 1.6.3 4.6-.4 1.4-1.4 3.1-3.3 4-1.9.8-4.6.5-6.5-1.2-1-.9-1.6-2.1-1.8-3.5s0-2.9.3-4.5c.7-3 2.3-6.4 1.7-10.2-.5-3.7-2.7-7.4-6.1-9.7-1.7-1.1-3.6-2-5.7-2.4-2.1-.5-4.2-.5-6.3-.4s-4.1.2-6.1-.2c-1.9-.3-3.7-1.1-4.9-2.5s-1.8-3.2-2.1-5-.2-3.6 0-5.4c.4-3.5 1.2-7 .8-10.3s-1.9-6.1-3.8-8.2-4.2-3.3-6.1-4.3-3.6-1.9-4.8-2.8c-2.5-1.8-3-3.5-3.1-3.4 0 0 0 .1.1.3s.2.5.4.8c.4.7 1.2 1.7 2.4 2.6 1.2 1 2.9 1.9 4.8 3s4.1 2.3 5.8 4.3 3.1 4.7 3.5 7.9c.4 3.1-.4 6.5-.8 10.1-.2 1.8-.3 3.7-.1 5.7.3 1.9.9 3.9 2.3 5.5s3.4 2.6 5.5 2.9 4.2.2 6.3.2c2.1-.1 4.1-.1 6 .4 1.9.4 3.7 1.2 5.3 2.3 3.2 2.1 5.2 5.5 5.7 9 .6 3.5-.9 6.7-1.6 9.9-.4 1.6-.5 3.2-.3 4.8.2 1.5 1 3 2.1 3.9 2.2 1.9 5.2 2.2 7.2 1.2 2.1-1 3.1-2.9 3.5-4.4s.1-2.8-.1-3.6c-.2-1.1-.5-1.4-.5-1.4z" fill="#263239"/><g fill="#fbd5be"><path d="M196.2 212l-3.4 51H67.3s-3.7-18.4-5.9-35.8c-1.2-9.3-3.9-14-4.3-14.8-.9-1.9 5.5-51.4 5.5-51.4l62.2-7s19.1-3.1 39.7-2.6c21.9.5 28 13.4 28.8 29.6l2.9 31z"/><path d="M62.7 161s-16.6 2.8-23.4 14.2C32.6 186.6 0 263 0 263l49.6 1.7 21.5-46.8-8.4-56.9z"/></g><path d="M61.5 227.1s17.4-27.5 41.3-16.6 29.3 30.9 29.3 30.9 11.3-38.2 37.9-35.4c26.8 2.8 23.4 27.8 23.3 23.2l-.5 33.7H66.5l-5-35.8z" fill="#263239"/><path d="M53.2 202.6s.3.4.8 1.3c.5.8 1.1 2.1 1.8 3.6 1.4 3.1 3.2 7.5 4.5 12.5s2 9.7 2.3 13.1c.2 1.7.2 3.1.2 4v1.5s-.1-.5-.2-1.5l-.4-4c-.4-3.4-1.1-8-2.5-13-1.3-5-3-9.4-4.3-12.5l-1.6-3.7c-.4-.8-.6-1.3-.6-1.3z" fill="#f7b195"/><path d="M55.9 264.6l27.4-39.2 2.5-26.2 14.8-18.2 5.9-5.9H128s1.3 5.5-6.3 8l-8.9.8-5.5 5.5 8.4-3.4 25.3 7.2s0 6.3-5.1 5.9-17.3-3.4-17.3-3.4l-15.4 6.8 14.1 4.2 13.9 19.8s-4.2 5.1-8 2.5l-.8 3.8s-3.4-1.3-7.6-4.6l-4.2-3.4-5.5-.8.3 10.7a12.77 12.77 0 0 1-2.1 7.5L89 264.6H55.9z" fill="#fbd5be"/><g fill="#f7b195"><path d="M55.9 264.6h33.3l-.1.1 11-17.3 3-4.9s1.6-3.6 1.9-5.6c.2-1 .3-2 .3-3.1l-.3-9.7v-.3h.2l5.5.8h.1l5.5 4.3c1.9 1.4 4 2.7 6.3 3.7l-.3.2.8-3.8.1-.3.3.2c.6.3 1.2.6 1.9.7.7 0 1.4-.1 2.1-.4 1.4-.6 2.6-1.6 3.7-2.7v.3L117.3 207l.1.1-14.1-4.2-.7-.2.6-.3 15.4-6.8h.2l12 2.6 3.1.5s2.1.3 3.1.3c1-.1 1.9-.6 2.5-1.4s1-1.8 1.2-2.8c.1-.5.1-1 .2-1.5l.2.3-25.3-7.2h.2l-8.4 3.4-1.2.5 6.5-6.5h.1l8.9-.8h-.1c1.8-.6 3.4-1.5 4.6-2.8s1.8-3.2 1.5-4.9l.2.2h-21.5l.2-.1-5.9 5.9-14.8 18.1v-.1l-2.6 26.2-27.6 39.1c.7-1.1 10.2-14.8 27.3-39.3v.1l2.5-26.3 14.8-18.2 6-6h21.8v.2c.3 1.9-.4 3.9-1.6 5.3-1.3 1.4-3 2.4-4.9 3h0l-8.9.8.2-.1-5.5 5.5-.3-.4 8.4-3.4h.2l25.3 7.2.2.1v.2c0 .5-.1 1-.2 1.6-.2 1.1-.6 2.1-1.3 3a4.26 4.26 0 0 1-2.9 1.6c-1.1.1-2.2-.1-3.2-.3s-2.1-.3-3.1-.5c-4.1-.8-8.1-1.7-12-2.6h.2l-15.4 6.7v-.5l14.1 4.2h.1v.1l13.9 19.8.1.2-.1.1c-1.1 1.2-2.4 2.2-3.8 2.9-.7.3-1.5.5-2.3.4-.8 0-1.5-.4-2.2-.7l.4-.1c-.3 1.3-.6 2.6-.8 3.8l-.1.3-.2-.1c-2.3-1-4.4-2.3-6.4-3.7l-5.5-4.3h.1l-5.5-.8.2-.2c.1 2.2.1 4.4.2 6.5 0 1.1.1 2.1.1 3.2s-.1 2.1-.3 3.1c-.4 2-1 4-2 5.7-1 1.8-2.1 3.3-3.1 4.9l-11 17.3v.1h-.1l-33.4-.4z"/><path d="M123.4 229.2s-.3-.4-.7-1.1l-1.8-2.9-2.8-4.2-1.8-2.4c-.7-.8-1.4-1.6-2.3-2-1-.4-2-.7-3-1s-2-.5-2.9-.7l-5-1-3.4-.6c-.8-.1-1.2-.2-1.2-.3 0 0 .5 0 1.3.1l3.4.4 5 .9 2.9.7c1 .3 2.1.5 3.1 1 1.1.5 1.8 1.4 2.5 2.2s1.3 1.6 1.8 2.4l2.7 4.3 1.7 3c.4.7.5 1.1.5 1.2zm-31.1-33.1c-.1-.1 3.5-1.8 8-3.7l8.2-3.2c.1.1-3.5 1.8-8 3.7l-8.2 3.2z"/></g></svg>