<svg xmlns="http://www.w3.org/2000/svg" viewBox="0 0 259.9 286.5"  xmlns:v="https://vecta.io/nano"><path d="M177.6 166.8c0-3.4-2.2-6.7-5.3-8-3.1-1.4-7-.8-9.5 1.5-3.1-3.1-8.1-4.7-12.1-2.8s-5.7 7.9-2.6 11.1c-4.9.6-8.7 6-7.7 10.8 1.1 4.9 6.8 8.1 11.5 6.6 1.5 4.1 5.8 7 10.2 7s8.6-2.6 10.9-6.3c2.2-3.8 2.6-8.5 1.2-12.7 2.9-1.3 4.6-5 3.5-8" fill="#f5f4f5"/><path d="M0 196c0-7.2 7.5-34.4 49.1-41.8l69.8-12.7s30.5 9.8 43.7 11.8c15.3 2.4 39.6 12.1 49.5 25s29.5 62.1 29.5 62.1 15.6 21 18.3 45.6h-67.3L.2 282.7C.6 281.9 0 196 0 196z" fill="#f8bc9e"/><g fill="#ec9a6e"><path d="M195.3 286.4s-.2-.2-.6-.5l-1.7-1.6c-1.4-1.4-3.4-3.6-5.6-6.4-4.4-5.7-9.4-14.6-11.7-25.4s-1.4-21 .2-27.9c.8-3.5 1.7-6.3 2.5-8.1.3-.9.7-1.7.9-2.1.2-.5.3-.7.3-.7s-.1.3-.3.8-.5 1.2-.8 2.2c-.7 1.9-1.5 4.7-2.3 8.2-1.6 7-2.4 17-.1 27.7s7.2 19.6 11.5 25.3c2.1 2.9 4.1 5 5.5 6.5.7.7 1.3 1.3 1.6 1.7.4.1.6.3.6.3z"/><path d="M174.5 237.8c-.1 0-1.7-3.9-3.5-8.8l-3-9c.1 0 1.7 3.9 3.5 8.8l3 9z"/></g><path d="M39.1 264s-2.3-9.8-1-12.5 7.8-8.9 7.8-8.9l27.3-4.7 37.4 16.3 1 31.6s-39.9 1.2-43.7.1-11 1.7-13.3-1.3l-2.3-3s-5.6-.2-6.7-3.2c0 0-8.9-6-8.5-9.4.4-3.2 2-5 2-5z" fill="#f8bc9e"/><g fill="#ec9a6e"><path d="M61.5 250.5s-.3.2-1 .4-1.6.6-2.8 1l-9.4 3c-1.8.6-3.5 1.3-4.7 2.4s-2.1 2.3-2.7 3.4l-2 3.5s.1-.4.4-1l1.3-2.7c.6-1.1 1.4-2.4 2.7-3.6 1.2-1.2 3-2 4.8-2.6l9.4-2.9c1.2-.4 2.2-.6 2.9-.8.7 0 1.1-.1 1.1-.1zm3.5 11.2s-.2.3-.7.8c-.5.4-1.3 1.1-2.4 1.7l-3.9 1.9-4.9 2c-1.7.8-3.2 1.7-4.4 2.8s-2.1 2.2-2.9 3.2l-2.4 3.2s.1-.4.5-.9l1.6-2.4c.7-1 1.6-2.2 2.8-3.3s2.7-2.1 4.5-3c1.7-.8 3.4-1.4 4.9-2l3.9-1.7c2.2-1.2 3.3-2.4 3.4-2.3zm1.6 12.8c0 .1-1 0-2.5.1s-3.6.5-5.7 1.4-3.8 2.2-4.9 3.2-1.7 1.8-1.8 1.7c0 0 .4-.9 1.5-2s2.8-2.5 5-3.4 4.4-1.3 5.9-1.3 2.5.2 2.5.3z"/><path d="M110.6 254.1s-.2-.1-.7-.3l-2-.8-34.8-15.1h.1l-27.3 4.7.1-.1-3.7 3.8c-1.2 1.3-2.4 2.6-3.4 4.1-1.2 1.4-1 3.3-1 5.1.1 1.8.4 3.7.8 5.5l.6 2.7v.1l-.1.1c-.9 1.2-1.5 2.7-1.8 4.2-.5 1.5.5 2.8 1.4 4 2 2.3 4.4 4.2 6.8 5.9h.1v.1c.4 1.1 1.6 1.9 2.8 2.3s2.4.6 3.7.7h.1l.1.1 2 2.6c.2.2.3.4.5.6s.4.3.6.4c.4.3.9.4 1.4.5 2.1.3 4.2 0 6.2-.2 1-.1 2.1-.1 3.1-.1l.8.1.8.2c.5.1.9.2 1.4.2 1.9.2 3.8.2 5.7.2 7.4.1 13.9 0 19.4-.1l12.7-.2h3.4c-.8 0-1.9.1-3.4.1l-12.7.3-19.4.2c-1.9 0-3.8-.1-5.7-.2-.5 0-1-.1-1.5-.2l-1.4-.2c-1-.1-2 0-3 .1-2 .1-4.1.5-6.3.2a9.83 9.83 0 0 1-1.6-.5c-.5-.3-1-.7-1.3-1.2l-2-2.6.2.1c-1.3-.1-2.6-.3-3.8-.7s-2.5-1.2-3.1-2.6l.1.1c-2.4-1.7-4.9-3.6-6.9-6-.5-.6-1-1.2-1.3-2-.2-.4-.3-.8-.3-1.2 0-.5.1-.8.1-1.2.3-1.6.9-3.1 1.9-4.5l-.1.2-.6-2.7c-.3-1.9-.6-3.7-.8-5.6 0-.9-.1-1.9 0-2.8.1-.5.1-.9.3-1.4s.5-.8.7-1.2c1.1-1.5 2.3-2.9 3.5-4.2s2.4-2.6 3.7-3.8l.1-.1h.1l27.4-4.7h.1l27.1 12 7.5 3.4a26.66 26.66 0 0 0 2 .9c.4.6.6.7.6.7z"/></g><path d="M110.6 254.1l100.7 4 48.6 27.9-148.3-.2z" fill="#f8bc9e"/><g fill="#263239"><path d="M18.6 59.5c3.7-4.7 8.4-9.3 9.3-15.2.9-5.5-1.5-11.4.9-16.4 3-6.1 11.7-7.3 15.4-13 1.8-2.7 2.2-6.2 4-9C51.3 1.2 57.5-.3 63.1 0 68.9.4 74.3 2.1 80 2.3c7.7.2 15.5-2.7 23-.9 8.3 2 13.6 9 19.2 15.7l7.3 7.7c1.5 1.3 3.1 2.5 4.8 3.5 3 1.7 6.4 2.9 9 5.1 5.6 4.9 5.6 14.7.1 19.6 6 1.6 10.5 7.6 10.5 13.8 0 3.4-1.3 6.7-2.2 10s-1.3 7 .2 10c1.5 3.1 5.6 5 8.5 3.2-.8 4.5-3.8 8.5-7.8 10.6 1.7 1.6 4 2.5 6.3 2.4-5.5 14.9-22.1 23.4-38 24.3-15.9.8-31.4-4.5-46.4-9.7l-43.5-9c-3.8-.7-5.6-5.2-5.7-9-.1-3.9.7-7.9-.9-11.4-2.1-4.8-8-7.2-10.2-12-2.5-5.6.7-12 4.4-16.7z"/><path d="M121.7 93.8c2.6-9.8 5.2-19.7 6.2-29.8.9-10.1.1-20.6-4-29.9-.6-1.4-5.7-10.9-7.2-10.6-1.1.2 2.2 9 1.7 10-4.8 9.3-5.7 20.3-4.3 30.7 1.3 10.4 4 19.7 7.6 29.6"/></g><path d="M80.7 179.3c15.7-1.1 46.1-23.7 46.1-23.7L120.7 55C120.2 29.5 105 8.5 79.5 9.7l-2.3.3c-23.6 2.5-41.4 22.7-40.8 46.4.5 22.1 1.4 46.5 2.8 58.2 2.9 24.3 27.6 25.5 27.6 25.5.1 0 .2 2.2.6 9.3 0 0-24.6 5.7-18.3 4.8l31.6 25.1z" fill="#f8bc9e"/><path d="M66.8 140.1s15.4-.7 30.7-12.7c0 0-5.9 18.5-30.4 18.9l-.3-6.2z" fill="#ec9a6e"/><path d="M44.8 73.9c.1 1.8 1.8 3.3 3.7 3.2s3.4-1.7 3.3-3.5-1.8-3.3-3.7-3.2c-2 .1-3.4 1.6-3.3 3.5zm-2.2-8c.5.4 2.9-1.8 6.6-2.2s6.7 1.2 7 .7c.2-.2-.3-1-1.6-1.7s-3.4-1.4-5.7-1.1-4.2 1.3-5.2 2.3-1.3 1.9-1.1 2zM79.3 72c.1 1.8 1.8 3.3 3.7 3.2s3.4-1.7 3.3-3.5-1.8-3.3-3.7-3.2c-2 0-3.5 1.6-3.3 3.5zm.1-8.4c.5.4 2.9-1.8 6.6-2.2s6.7 1.2 7 .7c.2-.2-.3-1-1.6-1.7S88 59 85.7 59.3s-4.2 1.3-5.2 2.3-1.3 1.8-1.1 2zM69 93.7c0-.2-2.4-.4-6.2-.5-1 0-1.9-.1-2.1-.7-.3-.7 0-1.7.3-2.9l2.1-7.6c2.8-10.8 4.8-19.6 4.3-19.7-.4-.1-3.1 8.5-5.9 19.3l-1.9 7.6c-.2 1.1-.7 2.4-.1 3.8.3.7 1.1 1.1 1.7 1.2s1.2.1 1.6.1c3.9-.1 6.2-.3 6.2-.6zm11.3 1.5c-.6 0-.2 4.1-3.4 7.3-3.2 3.3-7.5 3.3-7.5 3.8 0 .3 1 .7 2.9.5 1.8-.1 4.4-1 6.3-3s2.6-4.4 2.6-6.1c-.1-1.6-.6-2.6-.9-2.5zM78 48.4c.5 1 4.2.1 8.6.2 4.4 0 8.1.9 8.6-.1.2-.5-.5-1.4-2-2.2s-3.9-1.5-6.5-1.5c-2.7 0-5 .7-6.6 1.5s-2.3 1.6-2.1 2.1zm-35.1 5c.7.8 3.2-.4 6.3-.7 3.1-.5 5.8 0 6.3-1 .2-.5-.3-1.3-1.5-1.9-1.2-.7-3.2-1.1-5.3-.8s-3.9 1.3-4.9 2.2-1.3 1.8-.9 2.2z" fill="#263239"/><path d="M120.6 73.2c.4-.2 16.2-6.7 17.4 10s-15.8 14.5-15.8 14c-.1-.5-1.6-24-1.6-24z" fill="#f8bc9e"/><path d="M126.8 90.5c.1-.1.3.2.8.4s1.3.3 2.2-.1c1.7-.8 3-3.7 2.9-6.7a10.81 10.81 0 0 0-1.1-4.1c-.6-1.2-1.5-2-2.4-2.1s-1.5.4-1.7.9-.1.8-.1.8-.4-.3-.3-1c0-.3.2-.7.6-1.1s1-.6 1.6-.5c1.3 0 2.5 1.1 3.2 2.4a8.83 8.83 0 0 1 1.3 4.6c.1 3.4-1.4 6.6-3.7 7.5-1.2.4-2.2.1-2.7-.2-.5-.4-.6-.8-.6-.8z" fill="#ec9a6e"/><g fill="#263239"><path d="M45.4 28c-2.8-1.3 4.7-10.6 11.2-14 9.7-5.2 24.9-9 34.3-7 11.3 2.4 21 7.4 27.2 17.2s9.1 21.5 9.5 33.1c.1 3.5 0 7.2-1.7 10.4-2.1 3.8-6.4 6.5-5.9 11.5.2 1.9-.2 3.8-1.4 5.2-2.8 3.4-6.8.6-8.7-2.3-4.1-6.3-5-14.1-5.8-21.6-.6-5.3-1.1-10.7 0-15.9.6-2.8 1.8-5.5 2.3-8.4s.2-6.1-1.7-8.3c-.3-.4-.8-.8-1.4-1.3-5-3.8-11.7-4.7-17.5-2.2-9.2 3.9-24.9 9.9-29.3 7-6.3-4.2-8-7.1-8-7.1L45.4 28z"/><path d="M89.9 4.8c-9.4-2.5-19.8-1.6-28.1 3.4-4.4 2.7-8.3 6.7-9.4 11.7s1.4 11 6.3 12.6l.3.2c7.3 1.9 11.8.7 18.8-2.2 5.8-2.5 10.9-6.5 16.8-8.9 6.2-2.6 13.2-3.2 19.8-1.9-6.8-6.8-15.1-12.4-24.5-14.9z"/></g><path d="M152.4 111.6c0-.1-.6.1-1.7.1a9.39 9.39 0 0 1-4.5-1.6c-1.7-1.2-3.5-3.2-4.2-6.1-.8-2.9-.7-6.3.2-10 .8-3.7 2.4-7.6 3.4-12 .5-2.2.7-4.6.4-7.1-.3-2.4-1.2-5-2.9-7-1.7-2.1-4.2-3.3-6.7-4.2-2.5-1-5.1-1.7-7.3-3.1-4.6-2.8-7.5-7.9-9.2-13.3-1.8-5.5-2.5-11.1-4-16.5-1.4-5.3-3.7-10.5-7.4-14.1-3.8-3.6-8.8-5.2-13.4-5.3a26.84 26.84 0 0 0-12.3 2.7c-6.9 3.5-11 8.6-13.5 11.9-1.3 1.7-2.1 3.1-2.7 4.1s-.8 1.5-.8 1.5.4-.5 1-1.4 1.6-2.3 2.9-3.9c2.6-3.3 6.7-8.1 13.5-11.5a26.68 26.68 0 0 1 11.9-2.5c4.4.1 9.1 1.7 12.6 5.1s5.7 8.4 7.1 13.6c1.5 5.2 2.2 10.9 4 16.5 1.8 5.5 4.8 11 9.8 14 2.4 1.5 5.1 2.3 7.5 3.2s4.7 2.1 6.3 3.9c1.5 1.8 2.4 4.1 2.7 6.4s.1 4.6-.3 6.7c-.9 4.3-2.4 8.3-3.2 12-.8 3.8-.9 7.4 0 10.4s2.8 5.1 4.6 6.3 3.6 1.5 4.7 1.4c1 .1 1.5-.2 1.5-.2zM72.3 4.7c0-.1-2-.2-5.1.8-3 1-7 3.4-9.8 7.5s-3.5 8.7-3.3 11.9 1 5 1.1 5c.2 0-.3-1.9-.3-5 0-3 .9-7.3 3.5-11.2 2.6-3.8 6.3-6.2 9.1-7.3 2.9-1.4 4.8-1.5 4.8-1.7zM38.7 21.4c-.3-.1-1.5 2.6-1.3 6.1s1.7 6.1 2 5.9c.3-.1-.6-2.7-.8-6-.2-3.2.4-5.9.1-6z" fill="#455a64"/><path d="M211.3 258.1c0 .1-22.7-.7-50.6-1.9l-50.6-2.4c0-.1 22.7.7 50.6 1.9l50.6 2.4zM72.8 159.3c0 .1-4.3.7-9.6 1.3l-9.6.8c0-.1 4.3-.7 9.6-1.3l9.6-.8zm56.4 0c0 .1-6.5-.2-14.4-.8-8-.6-14.4-1.2-14.4-1.3s6.5.2 14.4.8c7.9.5 14.4 1.1 14.4 1.3zm-87.3 86.5s-.3-.3-.7-.9l-1.7-2.5-5.1-8.4-4.6-8.7-1.3-2.7c-.3-.6-.4-1-.4-1l.6.9 1.4 2.6 4.8 8.6 5 8.5 1.5 2.6.5 1z" fill="#ec9a6e"/></svg>