<svg xmlns="http://www.w3.org/2000/svg" viewBox="0 0 650.7 153.5"  xmlns:v="https://vecta.io/nano"><path d="M589.5 103.5C586.3 89.1 574 72.8 555.1 66c-18.9-6.7-52.8.1-54.1 20.1-17.6-13.1-44.4-11.7-60.5 3.2-3.6-15.8-16.3-29.1-31.8-33.4-15.6-4.3-33.3.5-44.5 12.1-12.3-24.8-49.5-32.6-70.8-14.8-14.4-24.3-48.8-34.3-74-21.4-6-16.9-22.2-29.6-40-31.6s-36.4 7-45.9 22.1C111 15.1 84.3 33.6 83.1 57.1c-9.8-6.4-23.6-6-33.1 1-9.4 7-13.8 20.1-10.5 31.4-14.2-5.3-56.4 21.5-31.8 64l641.4-1.8c10.4-28.5-28.8-62.6-59.6-48.2z" fill="#f5f4f5"/></svg>