<svg xmlns="http://www.w3.org/2000/svg" viewBox="0 0 384.6 88.2"  xmlns:v="https://vecta.io/nano"><path d="M331.2 8.9c0-3-1.9-5.9-4.7-7.1-2.7-1.2-6.1-.7-8.4 1.3C315.4.3 311-1 307.5.7s-5 6.9-2.3 9.7c-4.3.5-7.7 5.2-6.7 9.5.9 4.3 6 7.1 10.1 5.8 1.3 3.6 5.1 6.1 8.9 6.2 3.8 0 7.6-2.2 9.5-5.5 2-3.3 2.3-7.5 1-11.1 2.6-1.1 4-4.4 3.1-7" fill="#f5f4f5"/><path d="M192.3 81.5c-1.4-7.3-12.3-11.7-19.7-11.7s-11.4 3.2-18 6.6c1.2-8.9-4-18.2-12.2-21.9-8.1-3.7-18.6-1.5-24.5 5.2.2-10.8-8.6-21.1-19.3-22.6s-22 6-24.8 16.4c-6.6-4.6-15.6-5.4-22.8-2-7.3 3.4-12.5 10.8-13.2 18.8-14-5.9-33 3.2-37.8 17.7h226.7c-7.8-10.3-24.3-14.5-34.4-6.5zM18.5 84.3c-2.6 0-4.7-2.1-4.7-4.7s2.1-4.7 4.7-4.7 4.7 2.1 4.7 4.7-2.1 4.7-4.7 4.7zm7.8-2.4a1.54 1.54 0 0 1-1.5-1.5 1.54 1.54 0 0 1 1.5-1.5 1.54 1.54 0 0 1 1.5 1.5 1.54 1.54 0 0 1-1.5 1.5zm.6-4.9c-1.2 0-2.1-.9-2.1-2.1s.9-2.1 2.1-2.1 2.1.9 2.1 2.1-.9 2.1-2.1 2.1zm28-9.3a5.34 5.34 0 0 1-5.3-5.3 5.34 5.34 0 0 1 5.3-5.3 5.34 5.34 0 0 1 5.3 5.3 5.34 5.34 0 0 1-5.3 5.3z" fill="#e0e0e0"/><path d="M383.5 86.1C378 76 364.4 71.2 353.7 75.7c-1.4-4.8-4.9-8.8-9.4-10.9-4.5-2-9.9-2-14.4.1-1.7-5.9-6.8-10.8-12.7-12.3-6-1.5-12.7.3-17.1 4.7-2 2-3.6 4.5-6.1 5.7-2 1-4.4 1-6.7 1.4-6.3 1-12.1 5.3-14.8 11.1-7.9-2.2-16.9.9-21.8 7.4-6.2-2.9-14.4-.5-18 5.2h151.8c-.3.1-.6-2-1-2z" fill="#ebebeb"/></svg>