<svg xmlns="http://www.w3.org/2000/svg" viewBox="0 0 905.6 649.2"  xmlns:v="https://vecta.io/nano"><path d="M388.8 443.7s-61.3-28.7-110.2-65c-20.7-15.4-39.2-32.1-49.8-48.6-7.6-11.7-11.2-23.3-8.8-34.2 0 0 9.9-29.2 51.9-21.5C314 282 422.5 309.9 430 341.7c7.5 31.9-41.2 102-41.2 102z" fill="#ffb27d"/><path d="M317.5 332.9l-18.3 45.5-20.6.2c-20.7-15.4-39.2-32.1-49.8-48.6 32.3 13.8 88.7 2.9 88.7 2.9z" fill="#ea9c68"/><path d="M729.7 189.2s6.1-131.7-87.6-127.9c-49.2 2-27.5-58-86.2-61.2-36.4-2-61.3 45.6-87.5 30.4s-93.8 36.1-56.6 71.7c27.5 26.2 10.5 28 22.5 63.2 13.3 39.3 49.1 21 45.7 55.5-3.8 38.4 55.7 57.1 79.7 40.7 24.1-16.4 44.4-17 47.4-11.4 2.9 5.6 4.7 1.5 4.7 1.5l117.9-62.5z" fill="#2c3a64"/><g fill="#ffb27d"><path d="M636.5 381.7s66.5-5.6 108.8-.4l99.5 37.6c6.5 2.2 11.9-16.1 11.9-16.1s-73.8-54.1-103.1-62.7-117.8-40.3-142.7-20 25.6 61.6 25.6 61.6z"/><path d="M856.7 402.8s34.1 8.5 31.5 21.4c-2.7 12.9-29.7 2-30.2 3.8s6.5 8.2.2 8.4c-5.2.1-15.4-18.3-15.4-18.3l13.9-15.3zM656.9 339l-90.2 5 7.9-57.5s19.3-4.5 34.3-40.5c5.2-12.4 14.3-25.1 20.1-41.3l46.3 57.2s-3.9 4.9-8.5 12.7c-4.9 8.4-10.7 20.1-13.2 32.5-2.1 10.6-1.8 21.8 3.3 31.9z"/></g><path d="M653.7 307c-33.7-16-44.8-61.1-44.8-61.1l58 28.6c-5 8.4-10.7 20.1-13.2 32.5z" fill="#ea9c68"/><path d="M685.3 287.1s-73.4.5-83.1-60.3c-10.4-65.6 28.7-101.3 52.8-98.2 48 6.2 70.5 30.9 73.9 51.8 3.4 20.8-3.2 106.8-43.6 106.7z" fill="#ffb27d"/><path d="M662.5 247.5s1.1 8.2 21.2 8.9c0 0 16.8.6 17.2-8.3-.1.1-15.7-7.8-38.4-.6z" fill="#fff"/><g fill="#ffb27d"><path d="M656.9 339s3 76.1-35.9 106.8c-24.9 19.7-131.7 32.7-223.7 22.2-101.1-11.5-28.6-52.7-21.6-103.4 2.1-15.2 198.8-78.3 198.8-78.3s61.1 61.2 82.4 52.7z"/><path d="M397.4 468s-199.8-6.3-210.7-69.1c0 0-3.6-34.2 38.2-43.1 41.9-8.9 161.1-26.6 180.1 0S397.4 468 397.4 468z"/><path d="M72.9 283.1S202 435.4 219.1 432.8s36.2-52.7 19.3-78.7-141.9-96.4-141.9-96.4l-23.6 25.4z"/><path d="M72.9 283.1s-66.8-38.5-57.6-49.7 45.5 13.8 55.8 5.6 8.5-2 25.3 18.7l-23.5 25.4zm223.9-174.3s-83 180.5-76.7 190.9c8.9 14.8 67.4 16 84.4-10.1 16.9-26 23.2-165.3 23.2-165.3l-30.9-15.5z"/><path d="M296.8 108.8s18.4-74.8 31.7-69.1-.6 47.6 10.1 55.2c10.8 7.6 4.3 7.6-10.9 29.5l-30.9-15.6z"/></g><g fill="#f77d48"><path d="M427.2 333.8s-78 97.4 0 137.9l-67.6-7.2s10.1-102.2-50.1-121c0 0 5.2-10.8 15-15.3 27.5-12.7 69.8-13.5 102.7 5.6z"/><path d="M427.2 333.8s-85 61.5-11.3 136.7c0 0 133.6 8.4 190.1-15.4 45.2-19 47.6-52.6 47.6-52.6l6.3-86.9-7.3-.9-15 64.2c-1.5 6.5-7.3 11.1-14 11.1h-4.4c-10 0-18.2-8.1-18.3-18.1-.2-25.6-3.9-70.8-26.3-85.3l-147.4 47.2z"/></g><g fill="#ffb27d"><path d="M572.3 379.3c-19.1 26.4-59.8 81-85.6 102.4l-54.6 122.4c-3.8 7.7-24.9-3.6-24.9-3.6s17.1-114 35.4-147.8S511 311.6 551.3 307.2c22.2-2.4 29.5 15.2 31.7 31.5 1.8 14.3-2.2 28.8-10.7 40.6z"/><path d="M407.2 600.5s-22.7 38.1-8.7 47.2c13.9 9.1 28.1-24.7 30.2-23.6s1.6 13.1 7.3 7.6c4.7-4.5-2.7-30.1-2.7-30.1l-26.1-1.1z"/></g><g fill="#2c3a64"><path d="M691.2 137.6s-23.9 33-48.6 31.1-25 12.7-35.7 20.4c-55.9 40.7-95.6-10-49.5-57.5s110-43.3 124.2-28.1c14.3 15.3 9.6 34.1 9.6 34.1z"/><path d="M689.9 139.4s18.6 6.5 23.9 25.5c4.4 15.8 12.5 27.1 20.6 22.4 8.1-4.8 16.8-100.7-63.4-122.2l18.9 74.3z"/></g><path d="M614.6 193.1h-13.4l-.7 14.6s11.9 8.8 12.4 8.1c.5-.8 1.7-22.7 1.7-22.7z" fill="#f77d48"/><path d="M632.1 179.8h91.4a12.76 12.76 0 0 1 12.8 12.8v20.6c0 8.9-7.2 16.1-16.1 16.1H704c-7.9 0-14.8-5.2-17.1-12.7h0c-.9-2.9-5-3.1-6.1-.3l-.4 1c-2.9 7.2-9.9 11.9-17.7 11.9H630c-9 0-16.4-7.2-16.6-16.2l-.4-13.7c-.4-10.6 8.3-19.5 19.1-19.5z" fill="#afcdfb"/><path d="M663.4 221.9h-32c-5.6 0-10.1-4.6-10.1-10.1v-14.4c0-5.6 4.6-10.1 10.1-10.1h32c5.6 0 10.1 4.6 10.1 10.1v14.4a10.07 10.07 0 0 1-10.1 10.1zm59 0h-20.5c-4.7 0-8.6-3.9-8.6-8.6v-17.4c0-4.7 3.9-8.6 8.6-8.6h20.5c4.7 0 8.6 3.9 8.6 8.6v17.4c0 4.7-3.9 8.6-8.6 8.6z" fill="#c7deff"/></svg>